<svg width="120" height="34" viewBox="0 0 120 34" fill="none" xmlns="http://www.w3.org/2000/svg">
<path fill-rule="evenodd" clip-rule="evenodd" d="M15.69 6.06285C15.9669 6.03656 16.1836 5.80107 16.1836 5.51498V5.15109C16.1836 4.85238 16.4189 4.61023 16.7092 4.61023H18.5166C18.8069 4.61023 19.0422 4.85238 19.0422 5.15109V5.50903C19.0422 5.79588 19.2601 6.03171 19.5377 6.05715C20.6288 6.15712 21.5892 6.37234 22.4189 6.70282C23.6211 7.17661 24.5293 7.86757 25.1432 8.77567C25.7571 9.68378 26.0641 10.7827 26.0641 12.0725C26.0641 13.3491 25.7571 14.448 25.1432 15.3693C24.542 16.2774 23.6531 16.9684 22.4764 17.4422C21.6351 17.7846 20.6568 18.0033 19.5415 18.0983C19.2622 18.122 19.0422 18.3585 19.0422 18.6469V19.0926C19.0422 19.3913 18.8069 19.6335 18.5166 19.6335H16.7092C16.4189 19.6335 16.1836 19.3913 16.1836 19.0926V18.63C16.1836 18.3439 15.9669 18.1084 15.69 18.0821C14.6126 17.9798 13.6579 17.7665 12.8262 17.4422C11.6239 16.9684 10.7094 16.284 10.0827 15.3891C9.45594 14.481 9.14258 13.3754 9.14258 12.0725C9.14258 10.7696 9.45594 9.67062 10.0827 8.77567C10.7094 7.86757 11.6239 7.17661 12.8262 6.70282C13.6579 6.37849 14.6126 6.16517 15.69 6.06285ZM16.1836 9.13379C16.1836 8.81522 15.917 8.56391 15.6108 8.61084C15.2166 8.67125 14.8575 8.75252 14.5337 8.85464C13.7407 9.1047 13.1459 9.49952 12.7494 10.0391C12.3529 10.5656 12.1547 11.2434 12.1547 12.0725C12.1547 12.9016 12.3657 13.586 12.7878 14.1256C13.2099 14.652 13.8174 15.0469 14.6104 15.3101C14.9174 15.4054 15.2496 15.4825 15.6067 15.5415C15.9141 15.5922 16.1836 15.3404 16.1836 15.02V9.13379ZM19.0422 15.04C19.0422 15.3581 19.3081 15.6094 19.6138 15.562C20.0323 15.4971 20.411 15.4065 20.7497 15.2903C21.5299 15.014 22.1119 14.6126 22.4956 14.0861C22.8793 13.5465 23.0712 12.8687 23.0712 12.0528C23.0712 11.2368 22.8729 10.5656 22.4764 10.0391C22.0799 9.51269 21.498 9.12444 20.7305 8.87438C20.3971 8.75806 20.0249 8.66745 19.614 8.60253C19.3084 8.55424 19.0422 8.80564 19.0422 9.12385V15.04ZM32.9938 19.1794C31.8938 19.1794 30.9153 18.9425 30.0584 18.4687C29.2142 17.9949 28.5427 17.35 28.0439 16.5341C27.5579 15.7049 27.3149 14.7639 27.3149 13.711C27.3149 12.645 27.5579 11.704 28.0439 10.888C28.5427 10.0589 29.2142 9.41398 30.0584 8.95334C30.9153 8.47955 31.8938 8.24265 32.9938 8.24265C34.0809 8.24265 35.053 8.47955 35.9099 8.95334C36.7669 9.41398 37.4384 10.0523 37.9244 10.8683C38.4104 11.6842 38.6534 12.6318 38.6534 13.711C38.6534 14.7639 38.4104 15.7049 37.9244 16.5341C37.4384 17.35 36.7669 17.9949 35.9099 18.4687C35.053 18.9425 34.0809 19.1794 32.9938 19.1794ZM32.9938 16.6525C33.4926 16.6525 33.9402 16.5341 34.3367 16.2972C34.7332 16.0603 35.0466 15.7247 35.2768 15.2903C35.507 14.8429 35.6222 14.3164 35.6222 13.711C35.6222 13.0925 35.507 12.566 35.2768 12.1317C35.0466 11.6974 34.7332 11.3618 34.3367 11.1249C33.9402 10.888 33.4926 10.7696 32.9938 10.7696C32.4949 10.7696 32.0473 10.888 31.6508 11.1249C31.2543 11.3618 30.9345 11.6974 30.6915 12.1317C30.4613 12.566 30.3462 13.0925 30.3462 13.711C30.3462 14.3164 30.4613 14.8429 30.6915 15.2903C30.9345 15.7247 31.2543 16.0603 31.6508 16.2972C32.0473 16.5341 32.4949 16.6525 32.9938 16.6525ZM44.9866 14.9942C45.1573 14.9942 45.3175 15.0796 45.416 15.2232L47.8645 18.7925C47.963 18.9361 48.1232 19.0215 48.294 19.0215H50.5271C50.9552 19.0215 51.2038 18.523 50.954 18.1651L47.9174 13.8144C47.7851 13.6248 47.7859 13.3692 47.9195 13.1805L50.6942 9.25984C50.9472 8.90238 50.699 8.40058 50.2693 8.40058H48.3918C48.2199 8.40058 48.059 8.48702 47.9607 8.63205L45.478 12.2951C45.3797 12.4401 45.2187 12.5265 45.0468 12.5265H44.2305C43.9402 12.5265 43.7049 12.2844 43.7049 11.9857V8.94145C43.7049 8.64274 43.4696 8.40058 43.1793 8.40058H41.2376C40.9473 8.40058 40.712 8.64274 40.712 8.94145V18.4806C40.712 18.7793 40.9473 19.0215 41.2376 19.0215H43.1793C43.4696 19.0215 43.7049 18.7793 43.7049 18.4806V15.5351C43.7049 15.2364 43.9402 14.9942 44.2305 14.9942H44.9866Z" fill="#F0F0F0"/>
<path d="M54.8104 23.0509C54.2732 23.0509 53.7424 22.9654 53.218 22.7943C52.8507 22.6744 52.5304 22.5223 52.2572 22.3378C52.0563 22.2022 52.0094 21.9297 52.1191 21.7098L52.7163 20.5131C52.8733 20.1987 53.2791 20.1241 53.5863 20.2823C53.6595 20.32 53.735 20.3545 53.8128 20.3858C54.1197 20.5043 54.4203 20.5635 54.7145 20.5635C55.1366 20.5635 55.4691 20.4582 55.7121 20.2476C55.9287 20.0804 56.1533 19.7503 56.3413 19.3654C56.4071 19.2308 56.4067 19.0731 56.3489 18.9347L52.2857 9.19647C52.1367 8.83954 52.3912 8.44223 52.7687 8.44223H54.7083C54.9211 8.44223 55.1128 8.57419 55.1941 8.77649L57.7151 15.0525C57.8045 15.2751 58.1108 15.2755 58.2007 15.0531L60.7383 8.77538C60.8199 8.57366 61.0113 8.44223 61.2236 8.44223H62.9559C63.3326 8.44223 63.587 8.83815 63.4395 9.19489L59.0887 19.7146C58.7562 20.5701 58.3725 21.2413 57.9376 21.7282C57.5155 22.2152 57.0423 22.5574 56.5179 22.7548C56.0063 22.9522 55.4371 23.0509 54.8104 23.0509Z" fill="#F0F0F0"/>
<path d="M66.8513 18.5301C67.7211 18.9907 68.7123 19.2211 69.8251 19.2211C70.9122 19.2211 71.8587 18.9907 72.6645 18.5301C73.324 18.1423 73.8422 17.6266 74.219 16.9831C74.3617 16.7393 74.2601 16.4303 74.0172 16.294L72.5913 15.4937C72.3354 15.3501 72.0195 15.4525 71.8425 15.6908C71.6305 15.9762 71.3865 16.1988 71.1105 16.3586C70.714 16.5823 70.2791 16.6942 69.8059 16.6942C69.2943 16.6942 68.8338 16.5757 68.4245 16.3388C68.0152 16.1019 67.6891 15.7663 67.4461 15.332C67.2159 14.8977 67.1007 14.3712 67.1007 13.7527C67.1007 13.1341 67.2159 12.6077 67.4461 12.1734C67.6891 11.7391 68.0152 11.4035 68.4245 11.1666C68.8338 10.9297 69.2943 10.8112 69.8059 10.8112C70.2791 10.8112 70.714 10.9297 71.1105 11.1666C71.3866 11.3264 71.6306 11.546 71.8427 11.8256C72.0198 12.0591 72.3313 12.1593 72.5849 12.0192L74.0154 11.2284C74.2593 11.0936 74.3629 10.7851 74.2214 10.5403C73.8444 9.88794 73.3255 9.37284 72.6645 8.99499C71.8587 8.5212 70.9122 8.2843 69.8251 8.2843C68.7123 8.2843 67.7211 8.5212 66.8513 8.99499C65.9816 9.45563 65.2973 10.1005 64.7985 10.9297C64.3125 11.7456 64.0694 12.6866 64.0694 13.7527C64.0694 14.8056 64.3125 15.7466 64.7985 16.5757C65.2973 17.4049 65.9816 18.0563 66.8513 18.5301Z" fill="#F0F0F0"/>
<path fill-rule="evenodd" clip-rule="evenodd" d="M32.8886 23.6642C32.7436 23.6642 32.626 23.7875 32.626 23.9395V28.3233C32.626 28.4753 32.7436 28.5986 32.8886 28.5986H33.4457C33.5908 28.5986 33.7083 28.4753 33.7083 28.3233V26.7548C33.7083 26.6636 33.7789 26.5896 33.8659 26.5896H34.3267C34.3564 26.786 34.4057 26.974 34.4747 27.1535C34.6002 27.4637 34.775 27.7339 34.9991 27.9642C35.2232 28.1898 35.4854 28.366 35.7856 28.4929C36.0904 28.6198 36.4221 28.6832 36.7806 28.6832C37.1347 28.6832 37.4641 28.6198 37.7688 28.4929C38.0736 28.366 38.3358 28.1898 38.5554 27.9642C38.7795 27.7339 38.9543 27.4637 39.0798 27.1535C39.2052 26.8387 39.268 26.498 39.268 26.1314C39.268 25.7648 39.2052 25.4265 39.0798 25.1163C38.9543 24.8015 38.7795 24.5312 38.5554 24.3057C38.3358 24.0754 38.0736 23.8968 37.7688 23.7699C37.4641 23.643 37.1347 23.5796 36.7806 23.5796C36.4221 23.5796 36.0904 23.643 35.7856 23.7699C35.4854 23.8968 35.2232 24.0754 34.9991 24.3057C34.775 24.5312 34.6002 24.7991 34.4747 25.1093C34.4136 25.266 34.3679 25.4304 34.3377 25.6027H33.8659C33.7789 25.6027 33.7083 25.5287 33.7083 25.4375V23.9395C33.7083 23.7875 33.5908 23.6642 33.4457 23.6642H32.8886ZM37.3251 27.5976C37.1593 27.6728 36.9778 27.7104 36.7806 27.7104C36.5879 27.7104 36.4064 27.6728 36.2361 27.5976C36.0702 27.5224 35.9246 27.4167 35.7991 27.2804C35.6736 27.1394 35.575 26.9726 35.5033 26.7799C35.4316 26.5872 35.3957 26.3711 35.3957 26.1314C35.3957 25.8917 35.4316 25.6756 35.5033 25.4829C35.575 25.2902 35.6736 25.1257 35.7991 24.9894C35.9246 24.8484 36.0702 24.7404 36.2361 24.6652C36.4064 24.59 36.5879 24.5524 36.7806 24.5524C36.9778 24.5524 37.1593 24.59 37.3251 24.6652C37.491 24.7404 37.6366 24.8484 37.7621 24.9894C37.8876 25.1257 37.9862 25.2902 38.0579 25.4829C38.1296 25.6756 38.1655 25.8917 38.1655 26.1314C38.1655 26.3711 38.1296 26.5872 38.0579 26.7799C37.9862 26.9726 37.8876 27.1394 37.7621 27.2804C37.6366 27.4167 37.491 27.5224 37.3251 27.5976ZM9.14258 28.3233C9.14258 28.4753 9.26015 28.5986 9.40518 28.5986H9.90182C10.0469 28.5986 10.1644 28.4753 10.1644 28.3233V25.5303C10.1644 25.4728 10.238 25.4538 10.2635 25.5048L11.4756 27.9295C11.5209 28.0202 11.6105 28.077 11.7081 28.077H11.8745C11.9721 28.077 12.0617 28.0202 12.1071 27.9295L13.3196 25.5039C13.3451 25.4529 13.4185 25.4718 13.4187 25.5293L13.4244 28.3238C13.4247 28.4757 13.5422 28.5986 13.687 28.5986H14.1838C14.329 28.5986 14.4466 28.4751 14.4464 28.3229L14.4404 23.9391C14.4402 23.7872 14.3227 23.6642 14.1778 23.6642H13.6884C13.5959 23.6642 13.5102 23.7152 13.4628 23.7985L11.7976 26.7262L10.1199 23.7977C10.0725 23.7149 9.98702 23.6642 9.89482 23.6642H9.40518C9.26015 23.6642 9.14258 23.7875 9.14258 23.9395V28.3233ZM16.2141 28.4012C16.5278 28.5704 16.8908 28.655 17.3032 28.655C17.6303 28.655 17.9194 28.6033 18.1704 28.4999C18.3424 28.4259 18.4943 28.3309 18.6263 28.2149C18.7294 28.1243 18.7263 27.963 18.6351 27.8593L18.4195 27.6141C18.3197 27.5006 18.1517 27.4988 18.0268 27.5805C17.9654 27.6207 17.9012 27.6546 17.8343 27.6822C17.6908 27.7433 17.5228 27.7739 17.3301 27.7739C17.1149 27.7739 16.9267 27.7339 16.7654 27.654C16.6085 27.5694 16.4852 27.4496 16.3956 27.2945C16.3806 27.2663 16.3669 27.2374 16.3545 27.2077C16.3142 27.111 16.3896 27.0125 16.4902 27.0125H18.8891C18.9696 27.0125 19.0371 26.9486 19.0443 26.8645C19.0488 26.8081 19.0511 26.7588 19.0511 26.7165C19.0511 26.3076 18.9682 25.9575 18.8023 25.6662C18.6365 25.3701 18.4102 25.1445 18.1233 24.9894C17.841 24.8296 17.5228 24.7498 17.1687 24.7498C16.8012 24.7498 16.4718 24.8343 16.1805 25.0035C15.8892 25.168 15.6584 25.3983 15.488 25.6943C15.3222 25.9857 15.2393 26.3217 15.2393 26.7024C15.2393 27.0783 15.3245 27.4144 15.4948 27.7104C15.6651 28.0018 15.9049 28.2321 16.2141 28.4012ZM16.4662 26.3711C16.3696 26.3711 16.2944 26.2797 16.3267 26.1841C16.3421 26.1385 16.3606 26.095 16.3822 26.0539C16.4584 25.9035 16.5637 25.7883 16.6981 25.7084C16.8371 25.6239 16.9962 25.5816 17.1754 25.5816C17.3547 25.5816 17.5116 25.6239 17.646 25.7084C17.7805 25.7883 17.8858 25.9011 17.962 26.0468C17.9849 26.0906 18.0043 26.1366 18.0203 26.185C18.0519 26.2804 17.9768 26.3711 17.8805 26.3711H16.4662ZM23.8759 27.9677C23.8759 27.8178 23.76 27.6963 23.6171 27.6963C23.4741 27.6963 23.3583 27.5748 23.3583 27.4249V25.0815C23.3583 24.9294 23.2407 24.8062 23.0956 24.8062H20.4582C20.317 24.8062 20.2011 24.9232 20.1958 25.0712L20.1583 26.1173C20.1493 26.3288 20.1336 26.5309 20.1112 26.7235C20.0888 26.9115 20.0552 27.0807 20.0104 27.2311C19.9655 27.3768 19.9028 27.4919 19.8221 27.5765C19.7415 27.6564 19.6361 27.6963 19.5062 27.6963C19.4393 27.6963 19.3852 27.7531 19.3852 27.8232V29.141C19.3852 29.293 19.5027 29.4163 19.6478 29.4163H20.0973C20.2424 29.4163 20.3599 29.293 20.3599 29.141V28.874C20.3599 28.7219 20.4775 28.5986 20.6225 28.5986H22.6385C22.7835 28.5986 22.9011 28.7219 22.9011 28.874V29.141C22.9011 29.293 23.0187 29.4163 23.1637 29.4163H23.6133C23.7583 29.4163 23.8759 29.293 23.8759 29.141V27.9677ZM21.1154 25.9718C21.1215 25.8246 21.2372 25.7084 21.3778 25.7084H22.0469C22.1919 25.7084 22.3095 25.8317 22.3095 25.9838V27.5311C22.3095 27.6223 22.239 27.6963 22.152 27.6963H20.8522C20.829 27.6963 20.8164 27.6664 20.8305 27.647C20.9022 27.5436 20.956 27.4191 20.9919 27.2734C21.0322 27.123 21.0591 26.9562 21.0725 26.7729C21.086 26.5896 21.0972 26.3969 21.1062 26.1948L21.1154 25.9718ZM25.5779 25.0815C25.5779 24.9294 25.4603 24.8062 25.3153 24.8062H24.7918C24.6467 24.8062 24.5292 24.9294 24.5292 25.0815V28.3233C24.5292 28.4753 24.6467 28.5986 24.7918 28.5986H25.3153C25.4603 28.5986 25.5779 28.4753 25.5779 28.3233V25.0815ZM29.009 28.5986C28.8654 28.5986 28.7489 28.4765 28.7489 28.3258C28.7489 28.2704 28.672 28.2456 28.6362 28.2864C28.576 28.355 28.506 28.4145 28.4262 28.4647C28.2245 28.5916 27.9646 28.655 27.6464 28.655C27.364 28.655 27.122 28.6057 26.9203 28.507C26.7186 28.4036 26.564 28.265 26.4565 28.0911C26.3489 27.9172 26.2951 27.7222 26.2951 27.506C26.2951 27.2804 26.3467 27.083 26.4497 26.9139C26.5573 26.7447 26.7254 26.6131 26.9539 26.5191C27.1825 26.4204 27.4805 26.3711 27.8481 26.3711H28.4191C28.5641 26.3711 28.6888 26.2443 28.6441 26.0997C28.6101 25.9897 28.5532 25.8969 28.4733 25.8212C28.3388 25.6896 28.1304 25.6239 27.8481 25.6239C27.6553 25.6239 27.4649 25.6568 27.2766 25.7225C27.2067 25.7458 27.1408 25.7724 27.0787 25.8024C26.9283 25.8751 26.7355 25.8324 26.6599 25.678L26.5339 25.421C26.4741 25.2988 26.5085 25.1474 26.6239 25.0824C26.7774 24.9957 26.9501 24.9248 27.1422 24.8696C27.42 24.7897 27.7024 24.7498 27.9892 24.7498C28.5405 24.7498 28.9685 24.886 29.2733 25.1586C29.578 25.4312 29.7304 25.8565 29.7304 26.4345V28.3233C29.7304 28.4753 29.6128 28.5986 29.4678 28.5986H29.009ZM28.6291 27.0125C28.6582 27.0125 28.6817 27.0372 28.6817 27.0676V27.4003C28.6189 27.5694 28.5181 27.6987 28.3791 27.788C28.2402 27.8725 28.0833 27.9148 27.9086 27.9148C27.7248 27.9148 27.5791 27.8749 27.4716 27.795C27.3685 27.7104 27.317 27.5976 27.317 27.4566C27.317 27.3298 27.3618 27.224 27.4514 27.1394C27.5455 27.0548 27.7158 27.0125 27.9623 27.0125H28.6291ZM44.4279 28.5986C44.3329 28.5986 44.2453 28.5448 44.1988 28.4579L43.5802 27.3013C43.5338 27.2144 43.4462 27.1606 43.3512 27.1606H43.161C43.074 27.1606 43.0035 27.2345 43.0035 27.3258V28.3233C43.0035 28.4753 42.8859 28.5986 42.7409 28.5986H42.2308C42.0858 28.5986 41.9682 28.4753 41.9682 28.3233V27.3258C41.9682 27.2345 41.8977 27.1606 41.8106 27.1606H41.6205C41.5255 27.1606 41.4379 27.2144 41.3914 27.3013L40.7728 28.4579C40.7264 28.5448 40.6388 28.5986 40.5438 28.5986H39.9281C39.7232 28.5986 39.5972 28.3635 39.7038 28.18L40.5142 26.7849C40.565 26.6974 40.5653 26.5874 40.5148 26.4995L39.7813 25.2237C39.6758 25.0401 39.8019 24.8062 40.0062 24.8062H40.4977C40.5922 24.8062 40.6794 24.8593 40.726 24.9455L41.3735 26.1401C41.4202 26.2262 41.5073 26.2794 41.6018 26.2794H41.8106C41.8977 26.2794 41.9682 26.2055 41.9682 26.1142V25.0815C41.9682 24.9294 42.0858 24.8062 42.2308 24.8062H42.7409C42.8859 24.8062 43.0035 24.9294 43.0035 25.0815V26.1142C43.0035 26.2055 43.074 26.2794 43.161 26.2794H43.3652C43.4594 26.2794 43.5464 26.2265 43.5931 26.1408L44.2455 24.9448C44.2923 24.8591 44.3793 24.8062 44.4735 24.8062H44.9655C45.1698 24.8062 45.2959 25.0401 45.1904 25.2237L44.4576 26.4983C44.407 26.5863 44.4074 26.6965 44.4586 26.7842L45.2731 28.1795C45.3802 28.363 45.2543 28.5986 45.0491 28.5986H44.4279ZM47.1049 25.0815C47.1049 24.9294 46.9873 24.8062 46.8423 24.8062H46.3255C46.1805 24.8062 46.0629 24.9294 46.0629 25.0815V28.3233C46.0629 28.4753 46.1805 28.5986 46.3255 28.5986H46.8423C46.9873 28.5986 47.1049 28.4753 47.1049 28.3233V27.1817H48.678V28.3233C48.678 28.4753 48.7956 28.5986 48.9406 28.5986H49.4641C49.6092 28.5986 49.7267 28.4753 49.7267 28.3233V25.0815C49.7267 24.9294 49.6092 24.8062 49.4641 24.8062H48.9406C48.7956 24.8062 48.678 24.9294 48.678 25.0815V26.2865H47.1049V25.0815ZM52.4987 28.655C52.0864 28.655 51.7234 28.5704 51.4097 28.4012C51.1004 28.2321 50.8606 28.0018 50.6903 27.7104C50.52 27.4144 50.4349 27.0783 50.4349 26.7024C50.4349 26.3217 50.5178 25.9857 50.6836 25.6943C50.8539 25.3983 51.0847 25.168 51.3761 25.0035C51.6674 24.8343 51.9968 24.7498 52.3643 24.7498C52.7183 24.7498 53.0366 24.8296 53.3189 24.9894C53.6057 25.1445 53.8321 25.3701 53.9979 25.6662C54.1637 25.9575 54.2466 26.3076 54.2466 26.7165C54.2466 26.7588 54.2444 26.8081 54.2399 26.8645C54.2326 26.9486 54.1652 27.0125 54.0847 27.0125H51.4899C51.5111 27.1135 51.5448 27.2075 51.5912 27.2945C51.6808 27.4496 51.8041 27.5694 51.9609 27.654C52.1223 27.7339 52.3105 27.7739 52.5256 27.7739C52.7183 27.7739 52.8864 27.7433 53.0298 27.6822C53.0968 27.6546 53.1609 27.6207 53.2224 27.5805C53.3473 27.4988 53.5153 27.5006 53.6151 27.6141L53.8307 27.8593C53.9219 27.963 53.925 28.1243 53.8219 28.2149C53.6899 28.3309 53.5379 28.4259 53.366 28.4999C53.115 28.6033 52.8259 28.655 52.4987 28.655ZM51.5777 26.0539C51.5562 26.095 51.5377 26.1385 51.5223 26.1841C51.4899 26.2797 51.5651 26.3711 51.6618 26.3711H53.0761C53.1724 26.3711 53.2474 26.2804 53.2159 26.185C53.1999 26.1366 53.1804 26.0906 53.1576 26.0468C53.0814 25.9011 52.976 25.7883 52.8416 25.7084C52.7071 25.6239 52.5503 25.5816 52.371 25.5816C52.1917 25.5816 52.0326 25.6239 51.8937 25.7084C51.7592 25.7883 51.6539 25.9035 51.5777 26.0539ZM56.0925 25.0815C56.0925 24.9294 55.975 24.8062 55.8299 24.8062H55.3131C55.1681 24.8062 55.0505 24.9294 55.0505 25.0815V28.3233C55.0505 28.4753 55.1681 28.5986 55.3131 28.5986H55.8299C55.975 28.5986 56.0925 28.4753 56.0925 28.3233V27.4571C56.0925 27.305 56.2101 27.1817 56.3551 27.1817H57.403C57.5481 27.1817 57.6656 27.305 57.6656 27.4571V28.3233C57.6656 28.4753 57.7832 28.5986 57.9282 28.5986H58.4518C58.5968 28.5986 58.7144 28.4753 58.7144 28.3233V25.0815C58.7144 24.9294 58.5968 24.8062 58.4518 24.8062H57.9282C57.7832 24.8062 57.6656 24.9294 57.6656 25.0815V26.0111C57.6656 26.1632 57.5481 26.2865 57.403 26.2865H56.3551C56.2101 26.2865 56.0925 26.1632 56.0925 26.0111V25.0815ZM61.4393 28.655C61.0494 28.655 60.7021 28.5728 60.3973 28.4083C60.0925 28.2391 59.8528 28.0065 59.678 27.7104C59.5077 27.4144 59.4225 27.0783 59.4225 26.7024C59.4225 26.3217 59.5077 25.9857 59.678 25.6943C59.8528 25.3983 60.0925 25.168 60.3973 25.0035C60.7021 24.8343 61.0494 24.7498 61.4393 24.7498C61.8203 24.7498 62.1519 24.8343 62.4343 25.0035C62.6438 25.1256 62.8127 25.2878 62.9408 25.4902C63.0173 25.611 62.9648 25.7688 62.843 25.8374L62.4746 26.0449C62.3479 26.1163 62.1935 26.0634 62.0963 25.9522C62.0343 25.8814 61.9655 25.8236 61.8897 25.7789C61.7508 25.6943 61.5984 25.6521 61.4326 25.6521C61.2533 25.6521 61.092 25.6943 60.9486 25.7789C60.8051 25.8635 60.6909 25.9834 60.6057 26.1384C60.525 26.2935 60.4847 26.4815 60.4847 26.7024C60.4847 26.9233 60.525 27.1112 60.6057 27.2663C60.6909 27.4214 60.8051 27.5412 60.9486 27.6258C61.092 27.7104 61.2533 27.7527 61.4326 27.7527C61.5984 27.7527 61.7508 27.7128 61.8897 27.6329C61.9653 27.5883 62.034 27.53 62.0959 27.458C62.1934 27.3446 62.35 27.2905 62.4778 27.3636L62.8439 27.573C62.9652 27.6424 63.0167 27.8005 62.9396 27.9208C62.8117 28.1206 62.6432 28.2831 62.4343 28.4083C62.1519 28.5728 61.8203 28.655 61.4393 28.655ZM66.7354 26.357C66.4889 26.1361 66.1281 26.0233 65.6531 26.0186H64.8963C64.8093 26.0186 64.7388 25.9446 64.7388 25.8534V25.0815C64.7388 24.9294 64.6212 24.8062 64.4762 24.8062H63.9594C63.8143 24.8062 63.6968 24.9294 63.6968 25.0815V28.5986L65.5119 28.6057C66.0139 28.6057 66.406 28.4905 66.6884 28.2603C66.9707 28.0253 67.1119 27.6987 67.1119 27.2804C67.1119 26.881 66.9864 26.5731 66.7354 26.357ZM65.8816 27.6893C65.7741 27.7833 65.6195 27.8279 65.4178 27.8232H65.0014C64.8564 27.8232 64.7388 27.6999 64.7388 27.5478V27.0016C64.7388 26.8485 64.8579 26.7248 65.004 26.7263L65.4178 26.7306C65.6195 26.7353 65.7741 26.7799 65.8816 26.8645C65.9892 26.9444 66.043 27.0783 66.043 27.2663C66.043 27.4543 65.9892 27.5953 65.8816 27.6893ZM70.4646 28.5986C70.3792 28.5986 70.2992 28.5551 70.25 28.4821L69.4075 27.2305C69.378 27.1867 69.33 27.1606 69.2788 27.1606H68.9734C68.8864 27.1606 68.8159 27.2345 68.8159 27.3258V28.3233C68.8159 28.4753 68.6983 28.5986 68.5533 28.5986H68.0297C67.8847 28.5986 67.7671 28.4753 67.7671 28.3233V25.0815C67.7671 24.9294 67.8847 24.8062 68.0297 24.8062H68.5533C68.6983 24.8062 68.8159 24.9294 68.8159 25.0815V26.1142C68.8159 26.2055 68.8864 26.2794 68.9734 26.2794H69.3C69.3515 26.2794 69.3998 26.253 69.4292 26.2087L70.2837 24.924C70.3328 24.8502 70.4133 24.8062 70.4991 24.8062H70.962C71.1767 24.8062 71.3006 25.0616 71.1742 25.2436L70.3261 26.4649C70.2594 26.561 70.259 26.6911 70.3251 26.7876L71.2668 28.1626C71.3916 28.3448 71.2674 28.5986 71.0535 28.5986H70.4646ZM76.6233 28.5986C76.4783 28.5986 76.3607 28.4753 76.3607 28.3233V25.0815C76.3607 24.9294 76.4783 24.8062 76.6233 24.8062H77.1468C77.2919 24.8062 77.4094 24.9294 77.4094 25.0815V28.3233C77.4094 28.4753 77.2919 28.5986 77.1468 28.5986H76.6233ZM72.6344 28.4012C72.9346 28.5704 73.2775 28.655 73.6629 28.655C74.0439 28.655 74.3845 28.5704 74.6848 28.4012C74.9851 28.2321 75.2203 28.0018 75.3907 27.7104C75.561 27.4144 75.6461 27.0783 75.6461 26.7024C75.6461 26.317 75.561 25.9787 75.3907 25.6873C75.2203 25.3959 74.9851 25.168 74.6848 25.0035C74.3845 24.8343 74.0439 24.7498 73.6629 24.7498C73.2775 24.7498 72.9346 24.8343 72.6344 25.0035C72.3386 25.168 72.1033 25.3983 71.9285 25.6943C71.7582 25.9857 71.673 26.3217 71.673 26.7024C71.673 27.0783 71.7582 27.4144 71.9285 27.7104C72.1033 28.0018 72.3386 28.2321 72.6344 28.4012ZM74.1335 27.6258C73.9946 27.7104 73.8377 27.7527 73.6629 27.7527C73.4881 27.7527 73.3313 27.7104 73.1923 27.6258C73.0534 27.5412 72.9414 27.4214 72.8562 27.2663C72.7755 27.1065 72.7352 26.9186 72.7352 26.7024C72.7352 26.4815 72.7755 26.2935 72.8562 26.1384C72.9414 25.9834 73.0534 25.8635 73.1923 25.7789C73.3313 25.6943 73.4881 25.6521 73.6629 25.6521C73.8377 25.6521 73.9946 25.6943 74.1335 25.7789C74.2725 25.8635 74.3823 25.9834 74.4629 26.1384C74.5436 26.2935 74.5839 26.4815 74.5839 26.7024C74.5839 26.9186 74.5436 27.1065 74.4629 27.2663C74.3823 27.4214 74.2725 27.5412 74.1335 27.6258ZM83.2171 25.0815C83.2171 24.9294 83.0995 24.8062 82.9545 24.8062H80.5822C80.4372 24.8062 80.3196 24.9294 80.3196 25.0815V28.3233C80.3196 28.4753 80.4372 28.5986 80.5822 28.5986H81.099C81.2441 28.5986 81.3616 28.4753 81.3616 28.3233V25.8737C81.3616 25.7824 81.4322 25.7084 81.5192 25.7084H82.9545C83.0995 25.7084 83.2171 25.5852 83.2171 25.4331V25.0815ZM85.904 28.655C85.5992 28.655 85.3325 28.5845 85.104 28.4435C85.0353 28.4012 84.9711 28.3522 84.9113 28.2967C84.8754 28.2634 84.8149 28.2888 84.8149 28.339V29.6908C84.8149 29.8429 84.6973 29.9662 84.5523 29.9662H84.0288C83.8837 29.9662 83.7662 29.8429 83.7662 29.6908V25.0815C83.7662 24.9294 83.8837 24.8062 84.0288 24.8062H84.5052C84.6503 24.8062 84.7678 24.9294 84.7678 25.0815V25.0913C84.7678 25.1429 84.8315 25.168 84.8671 25.1325C84.933 25.0668 85.0052 25.0097 85.0838 24.9612C85.3124 24.8202 85.5858 24.7498 85.904 24.7498C86.2446 24.7498 86.5494 24.832 86.8183 24.9965C87.0916 25.1563 87.3068 25.3818 87.4636 25.6732C87.625 25.9646 87.7057 26.3076 87.7057 26.7024C87.7057 27.1018 87.625 27.4472 87.4636 27.7386C87.3068 28.03 87.0916 28.2556 86.8183 28.4153C86.5494 28.5751 86.2446 28.655 85.904 28.655ZM85.7225 27.7527C85.8972 27.7527 86.0519 27.7104 86.1863 27.6258C86.3253 27.5412 86.4351 27.4214 86.5157 27.2663C86.6009 27.1065 86.6435 26.9186 86.6435 26.7024C86.6435 26.4815 86.6009 26.2935 86.5157 26.1384C86.4351 25.9834 86.3253 25.8635 86.1863 25.7789C86.0519 25.6943 85.8972 25.6521 85.7225 25.6521C85.5477 25.6521 85.3908 25.6943 85.2519 25.7789C85.1129 25.8635 85.0031 25.9834 84.9225 26.1384C84.8418 26.2935 84.8015 26.4815 84.8015 26.7024C84.8015 26.9186 84.8418 27.1065 84.9225 27.2663C85.0031 27.4214 85.1129 27.5412 85.2519 27.6258C85.3908 27.7104 85.5477 27.7527 85.7225 27.7527ZM89.1062 28.4012C89.4065 28.5704 89.7494 28.655 90.1348 28.655C90.5157 28.655 90.8564 28.5704 91.1566 28.4012C91.4569 28.2321 91.6922 28.0018 91.8625 27.7104C92.0328 27.4144 92.118 27.0783 92.118 26.7024C92.118 26.317 92.0328 25.9787 91.8625 25.6873C91.6922 25.3959 91.4569 25.168 91.1566 25.0035C90.8564 24.8343 90.5157 24.7498 90.1348 24.7498C89.7494 24.7498 89.4065 24.8343 89.1062 25.0035C88.8104 25.168 88.5751 25.3983 88.4003 25.6943C88.23 25.9857 88.1449 26.3217 88.1449 26.7024C88.1449 27.0783 88.23 27.4144 88.4003 27.7104C88.5751 28.0018 88.8104 28.2321 89.1062 28.4012ZM90.6054 27.6258C90.4664 27.7104 90.3096 27.7527 90.1348 27.7527C89.96 27.7527 89.8031 27.7104 89.6642 27.6258C89.5253 27.5412 89.4132 27.4214 89.3281 27.2663C89.2474 27.1065 89.2071 26.9186 89.2071 26.7024C89.2071 26.4815 89.2474 26.2935 89.3281 26.1384C89.4132 25.9834 89.5253 25.8635 89.6642 25.7789C89.8031 25.6943 89.96 25.6521 90.1348 25.6521C90.3096 25.6521 90.4664 25.6943 90.6054 25.7789C90.7443 25.8635 90.8541 25.9834 90.9348 26.1384C91.0155 26.2935 91.0558 26.4815 91.0558 26.7024C91.0558 26.9186 91.0155 27.1065 90.9348 27.2663C90.8541 27.4214 90.7443 27.5412 90.6054 27.6258ZM92.8393 25.0815C92.8393 24.9294 92.9569 24.8062 93.1019 24.8062H93.7801C93.8757 24.8062 93.9638 24.8607 94.01 24.9485L95.0441 26.9143C95.0638 26.9516 95.1147 26.9524 95.1354 26.9156L96.2455 24.9416C96.2927 24.8577 96.3787 24.8062 96.4717 24.8062H97.0415C97.1862 24.8062 97.3036 24.9288 97.3041 25.0805L97.3156 28.3222C97.3162 28.4747 97.1984 28.5986 97.053 28.5986H96.6313C96.4863 28.5986 96.3687 28.4753 96.3687 28.3233V26.53C96.3687 26.4741 96.2984 26.4538 96.2711 26.5018L95.3628 28.0978C95.3154 28.1811 95.2297 28.2321 95.1373 28.2321H94.994C94.9003 28.2321 94.8138 28.1797 94.7668 28.0948L93.8852 26.4993C93.8582 26.4506 93.7872 26.4707 93.7872 26.5269V28.3233C93.7872 28.4753 93.6696 28.5986 93.5246 28.5986H93.1019C92.9569 28.5986 92.8393 28.4753 92.8393 28.3233V25.0815ZM100.486 28.1274V28.5986H101.467V26.4345C101.467 25.8565 101.315 25.4312 101.01 25.1586C100.705 24.886 100.277 24.7498 99.7262 24.7498C99.4394 24.7498 99.157 24.7897 98.8792 24.8696C98.6013 24.9495 98.3637 25.0623 98.1665 25.208L98.543 25.9763C98.673 25.8682 98.8299 25.7836 99.0136 25.7225C99.2019 25.6568 99.3923 25.6239 99.585 25.6239C99.8674 25.6239 100.076 25.6896 100.21 25.8212C100.349 25.9528 100.419 26.1361 100.419 26.3711H99.585C99.2175 26.3711 98.9195 26.4204 98.6909 26.5191C98.4623 26.6131 98.2943 26.7447 98.1867 26.9139C98.0836 27.083 98.0321 27.2804 98.0321 27.506C98.0321 27.7222 98.0859 27.9172 98.1934 28.0911C98.301 28.265 98.4556 28.4036 98.6573 28.507C98.859 28.6057 99.101 28.655 99.3834 28.655C99.7016 28.655 99.9615 28.5916 100.163 28.4647C100.299 28.379 100.407 28.2666 100.486 28.1274ZM100.419 27.4003V27.0125H99.6993C99.4528 27.0125 99.2825 27.0548 99.1884 27.1394C99.0988 27.224 99.0539 27.3298 99.0539 27.4566C99.0539 27.5976 99.1055 27.7104 99.2086 27.795C99.3161 27.8749 99.4618 27.9148 99.6455 27.9148C99.8203 27.9148 99.9772 27.8725 100.116 27.788C100.255 27.6987 100.356 27.5694 100.419 27.4003ZM106.432 27.9677C106.432 27.8178 106.316 27.6963 106.173 27.6963C106.03 27.6963 105.915 27.5748 105.915 27.4249V25.0815C105.915 24.9294 105.797 24.8062 105.652 24.8062H103.015C102.873 24.8062 102.757 24.9232 102.752 25.0712L102.715 26.1173C102.706 26.3288 102.69 26.5309 102.667 26.7235C102.645 26.9115 102.611 27.0807 102.567 27.2311C102.522 27.3768 102.459 27.4919 102.378 27.5765C102.298 27.6564 102.192 27.6963 102.062 27.6963C101.996 27.6963 101.941 27.7531 101.941 27.8232V29.141C101.941 29.293 102.059 29.4163 102.204 29.4163H102.654C102.799 29.4163 102.916 29.293 102.916 29.141V28.5986H105.457V29.141C105.457 29.293 105.575 29.4163 105.72 29.4163H106.17C106.315 29.4163 106.432 29.293 106.432 29.141V27.9677ZM103.672 25.9718C103.678 25.8246 103.793 25.7084 103.934 25.7084H104.603C104.748 25.7084 104.866 25.8317 104.866 25.9838V27.5311C104.866 27.6223 104.795 27.6963 104.708 27.6963H103.409C103.385 27.6963 103.373 27.6664 103.387 27.647C103.459 27.5436 103.512 27.4191 103.548 27.2734C103.588 27.123 103.615 26.9562 103.629 26.7729C103.642 26.5896 103.653 26.3969 103.662 26.1948L103.672 25.9718ZM108.134 25.0815C108.134 24.9294 108.017 24.8062 107.872 24.8062H107.355C107.21 24.8062 107.092 24.9294 107.092 25.0815V28.3233C107.092 28.4753 107.21 28.5986 107.355 28.5986H107.936C108.014 28.5986 108.089 28.5614 108.139 28.4973L109.722 26.4627C109.753 26.4226 109.815 26.4457 109.815 26.4975V28.3233C109.815 28.4753 109.932 28.5986 110.077 28.5986H110.594C110.739 28.5986 110.857 28.4753 110.857 28.3233V25.0815C110.857 24.9294 110.739 24.8062 110.594 24.8062H110.02C109.941 24.8062 109.867 24.8432 109.817 24.9071L108.227 26.9426C108.196 26.9826 108.134 26.9594 108.134 26.9077V25.0815ZM25.0535 24.2775C24.8608 24.2775 24.7039 24.2187 24.5829 24.1012C24.4619 23.9837 24.4014 23.8381 24.4014 23.6642C24.4014 23.4903 24.4619 23.3446 24.5829 23.2271C24.7039 23.1096 24.8608 23.0509 25.0535 23.0509C25.2462 23.0509 25.4031 23.1073 25.5241 23.2201C25.6451 23.3282 25.7056 23.4692 25.7056 23.643C25.7056 23.8263 25.6451 23.979 25.5241 24.1012C25.4076 24.2187 25.2507 24.2775 25.0535 24.2775Z" fill="#F0F0F0"/>
<path d="M75.9191 24.2775C75.7263 24.2775 75.5695 24.2187 75.4485 24.1012C75.3275 23.9837 75.267 23.8381 75.267 23.6642C75.267 23.4903 75.3275 23.3446 75.4485 23.2271C75.5695 23.1096 75.7263 23.0509 75.9191 23.0509C76.1118 23.0509 76.2686 23.1073 76.3896 23.2201C76.5107 23.3282 76.5712 23.4692 76.5712 23.643C76.5712 23.8263 76.5107 23.979 76.3896 24.1012C76.2731 24.2187 76.1163 24.2775 75.9191 24.2775Z" fill="#F0F0F0"/>
<path d="M77.7947 24.2775C77.602 24.2775 77.4451 24.2187 77.3241 24.1012C77.2031 23.9837 77.1426 23.8381 77.1426 23.6642C77.1426 23.4903 77.2031 23.3446 77.3241 23.2271C77.4451 23.1096 77.602 23.0509 77.7947 23.0509C77.9874 23.0509 78.1443 23.1073 78.2653 23.2201C78.3863 23.3282 78.4468 23.4692 78.4468 23.643C78.4468 23.8263 78.3863 23.979 78.2653 24.1012C78.1487 24.2187 77.9919 24.2775 77.7947 24.2775Z" fill="#F0F0F0"/>
<path fill-rule="evenodd" clip-rule="evenodd" d="M0 0H10.8571V0.811048H0.804233V10.9492H0V0Z" fill="#2E9BFF"/>
<path fill-rule="evenodd" clip-rule="evenodd" d="M120 34H109.143V33.189H119.196V23.0508H120V34Z" fill="#F6DF31"/>
</svg>
